# File created by Blade
# Date/Time:  Fri Jan 16 19:49:56 2015
# Frame Rate: 120.000 fps
#------------------------------------------------------
:FULLY-SPECIFIED
:DEGREES
179
root 19.660158 35.378081 -21.225439 -170.809506 1.064569 -178.428481
Spine -6.852400 -2.579262 0.572611
Head 15.590347 1.092735 3.922870
LeftShoulder -14.943426 -6.444527 3.834482
LeftArm -51.439876 31.707606 -118.141892
LeftForeArm -11.266377 -0.000000 10.142001
LeftHand -2.741022 -0.000000 -43.868288
LeftHandThumb1 -26.253704 0.000000 33.147579
RightShoulder -18.669906 -30.525334 5.721882
RightArm -5.270441 -38.133414 86.218146
RightForeArm -15.760207 -0.000000 15.749504
RightHand 2.995614 -0.000000 41.579773
RightHandThumb1 -24.326973 -0.000000 -32.862282
LeftUpLeg -0.441813 9.356494 3.546259
LeftLeg -6.612996 -0.000000 0.000000
LeftFoot -20.552688 31.245075 -12.154051
LeftToeBase 26.900858 -0.000000 -0.000000
RightUpLeg -2.017141 -7.955501 -1.992108
RightLeg -2.904596 -0.000000 0.000000
RightFoot -20.377560 -18.820599 17.452985
RightToeBase 25.040667 -0.000000 -0.000000
180
root 19.661926 35.380658 -21.214940 -170.742855 1.089974 -178.450169
Spine -6.739141 -2.638552 0.505707
Head 16.087997 1.204166 3.878030
LeftShoulder -14.944470 -6.483385 3.786183
LeftArm -51.520624 31.737476 -118.237494
LeftForeArm -11.068038 -0.000000 10.240703
LeftHand -2.803702 0.000000 -43.836502
LeftHandThumb1 -26.253704 0.000000 33.147579
RightShoulder -18.550007 -30.506072 5.659438
RightArm -5.332625 -38.412386 86.320163
RightForeArm -15.353276 -0.000000 16.058715
RightHand 3.126182 -0.000000 41.584163
RightHandThumb1 -24.326973 -0.000000 -32.862282
LeftUpLeg -0.528416 9.407059 3.508553
LeftLeg -6.603532 -0.000000 0.000000
LeftFoot -20.524291 31.226609 -12.172012
LeftToeBase 26.889203 -0.000000 -0.000000
RightUpLeg -2.074804 -7.918095 -2.002135
RightLeg -2.966834 -0.000000 0.000000
RightFoot -20.334494 -18.863583 17.454201
RightToeBase 24.984242 -0.000000 -0.000000
181
root 19.664231 35.382065 -21.206771 -170.671087 1.124886 -178.454699
Spine -6.640563 -2.644915 0.462786
Head 16.616828 1.263594 3.787025
LeftShoulder -14.954769 -6.452561 3.730018
LeftArm -51.595170 31.801289 -118.350590
LeftForeArm -10.754613 -0.000000 10.408579
LeftHand -2.945010 -0.000000 -43.921932
LeftHandThumb1 -26.253704 0.000000 33.147579
RightShoulder -18.520531 -30.585840 5.667239
RightArm -5.314182 -38.631514 86.356543
RightForeArm -14.734017 -0.000000 16.445321
RightHand 3.127898 -0.000000 41.583431
RightHandThumb1 -24.326973 -0.000000 -32.862282
LeftUpLeg -0.588400 9.447419 3.485991
LeftLeg -6.646391 -0.000000 0.000000
LeftFoot -20.485345 31.234898 -12.204729
LeftToeBase 26.841847 -0.000000 -0.000000
RightUpLeg -2.142948 -7.878173 -1.997503
RightLeg -3.010144 -0.000000 0.000000
RightFoot -20.308062 -18.872187 17.458579
RightToeBase 25.045851 -0.000000 -0.000000
182
root 19.666694 35.383262 -21.197749 -170.619692 1.157751 -178.466947
Spine -6.505589 -2.671927 0.406683
Head 17.134930 1.395209 3.728294
LeftShoulder -14.987830 -6.378742 3.685313
LeftArm -51.626098 31.857544 -118.449796
LeftForeArm -10.471880 -0.000000 10.554565
LeftHand -3.035918 -0.000000 -43.962286
LeftHandThumb1 -26.253704 0.000000 33.147579
RightShoulder -18.515323 -30.618672 5.660078
RightArm -5.299675 -38.856916 86.425206
RightForeArm -14.169869 0.000000 16.721955
RightHand 3.318792 -0.000000 41.469539
RightHandThumb1 -24.326973 -0.000000 -32.862282
LeftUpLeg -0.656979 9.495152 3.462697
LeftLeg -6.632352 -0.000000 0.000000
LeftFoot -20.472323 31.206082 -12.221041
LeftToeBase 26.829640 -0.000000 -0.000000
RightUpLeg -2.197020 -7.833933 -2.002597
RightLeg -3.043770 -0.000000 0.000000
RightFoot -20.281028 -18.881897 17.443959
RightToeBase 25.077766 -0.000000 -0.000000
